<svg width="81" height="78" viewBox="0 0 81 78" fill="none" xmlns="http://www.w3.org/2000/svg">
<rect x="1.5" y="1.5" width="78" height="75" rx="37.5" stroke="black" stroke-width="3"/>
<g clip-path="url(#clip0)">
<path d="M47.8438 40.9688C47.8438 42.9164 47.07 44.7843 45.6928 46.1616C44.3156 47.5388 42.4477 48.3125 40.5 48.3125C38.5523 48.3125 36.6844 47.5388 35.3072 46.1616C33.93 44.7843 33.1562 42.9164 33.1562 40.9688C33.1562 39.0211 33.93 37.1532 35.3072 35.7759C36.6844 34.3987 38.5523 33.625 40.5 33.625C42.4477 33.625 44.3156 34.3987 45.6928 35.7759C47.07 37.1532 47.8438 39.0211 47.8438 40.9688Z" fill="black"/>
<path fill-rule="evenodd" clip-rule="evenodd" d="M22.875 27.75C21.3169 27.75 19.8225 28.369 18.7207 29.4707C17.619 30.5725 17 32.0669 17 33.625V51.25C17 52.8081 17.619 54.3025 18.7207 55.4043C19.8225 56.506 21.3169 57.125 22.875 57.125H58.125C59.6831 57.125 61.1775 56.506 62.2793 55.4043C63.381 54.3025 64 52.8081 64 51.25V33.625C64 32.0669 63.381 30.5725 62.2793 29.4707C61.1775 28.369 59.6831 27.75 58.125 27.75H54.6823C53.1242 27.7497 51.6301 27.1305 50.5286 26.0286L48.0964 23.5964C46.9949 22.4945 45.5008 21.8753 43.9427 21.875H37.0573C35.4992 21.8753 34.0051 22.4945 32.9036 23.5964L30.4714 26.0286C29.3699 27.1305 27.8758 27.7497 26.3177 27.75H22.875ZM24.3438 33.625C24.7333 33.625 25.1069 33.4703 25.3823 33.1948C25.6578 32.9194 25.8125 32.5458 25.8125 32.1562C25.8125 31.7667 25.6578 31.3931 25.3823 31.1177C25.1069 30.8422 24.7333 30.6875 24.3438 30.6875C23.9542 30.6875 23.5806 30.8422 23.3052 31.1177C23.0297 31.3931 22.875 31.7667 22.875 32.1562C22.875 32.5458 23.0297 32.9194 23.3052 33.1948C23.5806 33.4703 23.9542 33.625 24.3438 33.625ZM50.7812 40.9688C50.7812 43.6955 49.698 46.3106 47.7699 48.2387C45.8418 50.1668 43.2268 51.25 40.5 51.25C37.7732 51.25 35.1582 50.1668 33.2301 48.2387C31.302 46.3106 30.2188 43.6955 30.2188 40.9688C30.2188 38.242 31.302 35.6269 33.2301 33.6988C35.1582 31.7707 37.7732 30.6875 40.5 30.6875C43.2268 30.6875 45.8418 31.7707 47.7699 33.6988C49.698 35.6269 50.7812 38.242 50.7812 40.9688Z" fill="black"/>
</g>
<defs>
<clipPath id="clip0">
<rect width="47" height="47" fill="white" transform="translate(17 16)"/>
</clipPath>
</defs>
</svg>
