<svg width="32" height="32" viewBox="0 0 32 32" fill="none" xmlns="http://www.w3.org/2000/svg">
<path d="M16.0001 27.2L15.4881 26.624C15.1681 26.304 7.68005 17.472 7.68005 12.16C7.68005 7.552 11.3921 3.84 16.0001 3.84C20.6081 3.84 24.3201 7.552 24.3201 12.16C24.3201 17.472 16.8321 26.304 16.5121 26.688L16.0001 27.2ZM16.0001 5.12C12.0961 5.12 8.96005 8.256 8.96005 12.16C8.96005 16.256 14.3361 23.168 16.0001 25.216C17.6641 23.168 23.0401 16.256 23.0401 12.16C23.0401 8.256 19.9041 5.12 16.0001 5.12Z" fill="white"/>
<path d="M16.0001 5.12C12.0961 5.12 8.96005 8.256 8.96005 12.16C8.96005 16.256 14.3361 23.168 16.0001 25.216C17.6641 23.168 23.0401 16.256 23.0401 12.16C23.0401 8.256 19.9041 5.12 16.0001 5.12Z" fill="white"/>
<path d="M16 15.36C14.208 15.36 12.8 13.952 12.8 12.16C12.8 10.368 14.208 8.95999 16 8.95999C17.792 8.95999 19.2 10.368 19.2 12.16C19.2 13.952 17.792 15.36 16 15.36ZM16 10.24C14.912 10.24 14.08 11.072 14.08 12.16C14.08 13.248 14.912 14.08 16 14.08C17.088 14.08 17.92 13.248 17.92 12.16C17.92 11.072 17.088 10.24 16 10.24Z" fill="#30B3CA"/>
<ellipse cx="16.4103" cy="12.3077" rx="2.46154" ry="2.46154" fill="#30B3CA"/>
</svg>
