<svg width="26" height="26" viewBox="0 0 26 26" fill="none" xmlns="http://www.w3.org/2000/svg">
<path d="M13.0723 7.94446C10.2556 7.94446 8.01672 10.1833 8.01672 13C8.01672 15.8167 10.2556 18.0556 13.0723 18.0556C15.8889 18.0556 18.1278 15.8167 18.1278 13C18.1278 10.1833 15.8889 7.94446 13.0723 7.94446ZM13.0723 16.6111C11.0501 16.6111 9.46117 15.0222 9.46117 13C9.46117 10.9778 11.0501 9.3889 13.0723 9.3889C15.0945 9.3889 16.6834 10.9778 16.6834 13C16.6834 15.0222 15.0945 16.6111 13.0723 16.6111Z" fill="white"/>
<path d="M23.6888 10.6167L21.6666 9.96668L21.2332 8.88335L22.2443 7.00557C22.461 6.57224 22.3888 5.99446 22.0277 5.63335L20.2943 3.90001C19.9332 3.5389 19.3554 3.46668 18.9221 3.68335L17.0443 4.69446L15.961 4.26112L15.311 2.2389C15.1666 1.80557 14.7332 1.44446 14.2277 1.44446H11.7721C11.2666 1.44446 10.8332 1.80557 10.761 2.31112L10.111 4.33335C9.67767 4.40557 9.31656 4.55001 8.95545 4.76668L7.07767 3.75557C6.64434 3.5389 6.06656 3.61112 5.70545 3.97224L3.97211 5.70557C3.611 6.06668 3.53878 6.64446 3.75545 7.07779L4.69434 8.88335C4.54989 9.24446 4.40545 9.67779 4.261 10.0389L2.23878 10.6889C1.80545 10.8333 1.44434 11.2667 1.44434 11.7722V14.2278C1.44434 14.7333 1.80545 15.1667 2.311 15.3111L4.33322 15.9611L4.76656 17.0445L3.75545 18.9222C3.53878 19.3556 3.611 19.9333 3.97211 20.2945L5.70545 22.0278C6.06656 22.3889 6.64434 22.4611 7.07767 22.2445L8.95545 21.2333L10.0388 21.6667L10.6888 23.7611C10.8332 24.1945 11.2666 24.5556 11.7721 24.5556H14.2277C14.7332 24.5556 15.1666 24.1945 15.311 23.7611L15.961 21.6667L17.0443 21.2333L18.9221 22.2445C19.3554 22.4611 19.9332 22.3889 20.2943 22.0278L22.0277 20.2945C22.3888 19.9333 22.461 19.3556 22.2443 18.9222L21.2332 17.0445L21.6666 15.9611L23.761 15.3111C24.1943 15.1667 24.5554 14.7333 24.5554 14.2278V11.7722C24.5554 11.2667 24.1943 10.7611 23.6888 10.6167ZM23.111 14.0111L20.511 14.8056L20.4388 15.1667L19.7888 16.6833L19.5721 17.0445L20.8721 19.4278L19.4277 20.8722L17.0443 19.5722L16.6832 19.7889C16.1777 20.0778 15.6721 20.2945 15.1666 20.4389L14.8054 20.5111L14.011 23.1111H11.9888L11.1943 20.5111L10.8332 20.4389L9.31656 19.7889L8.95545 19.5722L6.57211 20.8722L5.12767 19.4278L6.42767 17.0445L6.211 16.6833C5.92211 16.1778 5.70545 15.6722 5.561 15.1667L5.48878 14.8056L2.88878 14.0111V11.9889L5.34434 11.2667L5.48878 10.9056C5.63322 10.3278 5.84989 9.82224 6.13878 9.31668L6.35545 8.95557L5.12767 6.57224L6.57211 5.12779L8.88322 6.42779L9.24434 6.21112C9.74989 5.92224 10.2554 5.70557 10.8332 5.56112L11.1943 5.41668L11.9888 2.8889H14.011L14.8054 5.41668L15.1666 5.56112C15.6721 5.70557 16.1777 5.92224 16.6832 6.21112L17.0443 6.42779L19.4277 5.12779L20.8721 6.57224L19.5721 8.95557L19.7888 9.31668C20.0777 9.82224 20.2943 10.3278 20.4388 10.8333L20.511 11.1945L23.111 11.9889V14.0111Z" fill="white"/>
</svg>
